{
  "accessors": [
    {
      "bufferView": 2,
      "componentType": 5126,
      "count": 2368,
      "max": [
        5.039768695831299,
        5.018354415893555,
        4.976650238037109
      ],
      "min": [
        -4.993283748626709,
        -5.033391952514648,
        -5.013783931732178
      ],
      "type": "VEC3"
    },
    {
      "bufferView": 2,
      "byteOffset": 28416,
      "componentType": 5126,
      "count": 2368,
      "type": "VEC3"
    },
    {
      "bufferView": 1,
      "componentType": 5126,
      "count": 2368,
      "type": "VEC2"
    },
    {
      "bufferView": 0,
      "componentType": 5125,
      "count": 2370,
      "type": "SCALAR"
    },
    {
      "bufferView": 2,
      "byteOffset": 56832,
      "componentType": 5126,
      "count": 1714,
      "max": [
        5.036667346954346,
        5.018354415893555,
        4.976650238037109
      ],
      "min": [
        -4.986419677734375,
        -5.033391952514648,
        -5.013783931732178
      ],
      "type": "VEC3"
    },
    {
      "bufferView": 2,
      "byteOffset": 77400,
      "componentType": 5126,
      "count": 1714,
      "type": "VEC3"
    },
    {
      "bufferView": 1,
      "byteOffset": 18944,
      "componentType": 5126,
      "count": 1714,
      "type": "VEC2"
    },
    {
      "bufferView": 0,
      "byteOffset": 9480,
      "componentType": 5125,
      "count": 1716,
      "type": "SCALAR"
    },
    {
      "bufferView": 2,
      "byteOffset": 97968,
      "componentType": 5126,
      "count": 1062,
      "max": [
        5.060545921325684,
        5.021596431732178,
        4.9896697998046875
      ],
      "min": [
        -5.03046178817749,
        -5.033391952514648,
        -5.001620292663574
      ],
      "type": "VEC3"
    },
    {
      "bufferView": 2,
      "byteOffset": 110712,
      "componentType": 5126,
      "count": 1062,
      "type": "VEC3"
    },
    {
      "bufferView": 1,
      "byteOffset": 32656,
      "componentType": 5126,
      "count": 1062,
      "type": "VEC2"
    },
    {
      "bufferView": 0,
      "byteOffset": 16344,
      "componentType": 5125,
      "count": 1062,
      "type": "SCALAR"
    }
  ],
  "asset": {
    "generator": "fab-model-conversion",
    "version": "2.0"
  },
  "bufferViews": [
    {
      "buffer": 0,
      "byteLength": 20592,
      "target": 34963
    },
    {
      "buffer": 0,
      "byteLength": 41152,
      "byteOffset": 20592,
      "byteStride": 8,
      "target": 34962
    },
    {
      "buffer": 0,
      "byteLength": 123456,
      "byteOffset": 61744,
      "byteStride": 12,
      "target": 34962
    }
  ],
  "buffers": [
    {
      "byteLength": 185200,
      "uri": "scene.bin"
    }
  ],
  "materials": [
    {
      "doubleSided": true,
      "name": "Planet_Colorsheet_v1",
      "pbrMetallicRoughness": {
        "baseColorFactor": [
          0.800000012,
          0.800000012,
          0.800000012,
          1.0
        ],
        "metallicFactor": 0.0,
        "roughnessFactor": 0.821115017
      }
    }
  ],
  "meshes": [
    {
      "name": "EA05_Planets_Earth_01a_LOD0_Planet_Colorsheet_v1_0",
      "primitives": [
        {
          "attributes": {
            "NORMAL": 1,
            "POSITION": 0,
            "TEXCOORD_0": 2
          },
          "indices": 3,
          "material": 0,
          "mode": 4
        }
      ]
    },
    {
      "name": "EA05_Planets_Earth_01a_LOD1_Planet_Colorsheet_v1_0",
      "primitives": [
        {
          "attributes": {
            "NORMAL": 5,
            "POSITION": 4,
            "TEXCOORD_0": 6
          },
          "indices": 7,
          "material": 0,
          "mode": 4
        }
      ]
    },
    {
      "name": "EA05_Planets_Earth_01a_LOD2_Planet_Colorsheet_v1_0",
      "primitives": [
        {
          "attributes": {
            "NORMAL": 9,
            "POSITION": 8,
            "TEXCOORD_0": 10
          },
          "indices": 11,
          "material": 0,
          "mode": 4
        }
      ]
    }
  ],
  "nodes": [
    {
      "children": [
        1
      ],
      "matrix": [
        1.0,
        0.0,
        0.0,
        0.0,
        0.0,
        2.220446049250313e-16,
        -1.0,
        0.0,
        0.0,
        1.0,
        2.220446049250313e-16,
        0.0,
        0.0,
        0.0,
        0.0,
        1.0
      ],
      "name": "FAB converted model"
    },
    {
      "children": [
        2
      ],
      "matrix": [
        1.0,
        0.0,
        0.0,
        0.0,
        0.0,
        0.0,
        1.0,
        0.0,
        0.0,
        -1.0,
        0.0,
        0.0,
        0.0,
        0.0,
        0.0,
        1.0
      ],
      "name": "EA05_Planets_Earth_01a.fbx"
    },
    {
      "children": [
        3,
        5,
        7
      ],
      "name": "RootNode"
    },
    {
      "children": [
        4
      ],
      "name": "EA05_Planets_Earth_01a_LOD0"
    },
    {
      "mesh": 0,
      "name": "EA05_Planets_Earth_01a_LOD0_Planet_Colorsheet_v1_0"
    },
    {
      "children": [
        6
      ],
      "name": "EA05_Planets_Earth_01a_LOD1"
    },
    {
      "mesh": 1,
      "name": "EA05_Planets_Earth_01a_LOD1_Planet_Colorsheet_v1_0"
    },
    {
      "children": [
        8
      ],
      "name": "EA05_Planets_Earth_01a_LOD2"
    },
    {
      "mesh": 2,
      "name": "EA05_Planets_Earth_01a_LOD2_Planet_Colorsheet_v1_0"
    }
  ],
  "scene": 0,
  "scenes": [
    {
      "name": "FAB converted",
      "nodes": [
        0
      ]
    }
  ]
}
